<svg xmlns="http://www.w3.org/2000/svg" fill="none" viewBox="0 0 26 26"><g filter="url(#a)"><mask id="b" x="0" y="0" maskUnits="userSpaceOnUse" style="mask-type:alpha"><circle cx="12" cy="12" r="12" fill="#d9d9d9"/></mask><g mask="url(#b)"><path fill="#ea1a1a" fill-rule="evenodd" d="M-4 0v24h32V0z" clip-rule="evenodd"/><mask id="c" x="-4" y="0" maskUnits="userSpaceOnUse" style="mask-type:luminance"><path fill="#fff" fill-rule="evenodd" d="M-4 0v24h32V0z" clip-rule="evenodd"/></mask><g mask="url(#c)"><path fill="#fff" d="M14.239 11.827c.058.018 7.41 2.248 2.447 7.877-.015-.006-2.758-1.165-2.447-4.05.311-2.892.889-3.516 0-3.827m-1.955 1.734s1.333 7.643-5.95 5.711c-.003-.041-.18-2.991 2.528-3.999 2.726-1.014 3.542-.777 3.422-1.712m-8.96-5.693s2.882-.807 4.434 1.654 1.485 3.309 2.376 3c-.021.009-7.206 2.859-6.81-4.654m9.95 3.251s3.65-6.846 8.205-.844c0 0-1.68 2.476-4.453 1.6-2.774-.877-3.271-1.567-3.752-.756m-.285-7.716s2.009 2.217.502 4.705c-1.508 2.489-2.296 2.808-1.622 3.467 0 0-5.79-5.163 1.12-8.172"/><path fill="#ea1a1a" d="m5.95 10.342.422-.268c.927 1.458 2.129 2.175 3.63 2.175v.5c-1.68 0-3.037-.81-4.052-2.407"/><path fill="#ea1a1a" fill-rule="evenodd" d="M17.75 10.75a.75.75 0 1 0 0-1.5.75.75 0 0 0 0 1.5m-1.791 4.978a.75.75 0 1 0 0-1.5.75.75 0 0 0 0 1.5m-6 2a.75.75 0 1 0 0-1.5.75.75 0 0 0 0 1.5m-4-7a.75.75 0 1 0 0-1.5.75.75 0 0 0 0 1.5m6-3a.75.75 0 1 0 0-1.5.75.75 0 0 0 0 1.5" clip-rule="evenodd"/><path fill="#ea1a1a" d="m11.635 7.053.44.238c-.833 1.536-.892 2.953-.187 4.279l-.442.235c-.787-1.481-.72-3.075.189-4.752m6.38 2.633-.075.494c-1.956-.296-3.42.116-4.422 1.23l-.372-.335c1.125-1.249 2.758-1.71 4.869-1.39"/><path fill="#ea1a1a" d="m16.351 15.365-.49.098c-.39-1.939-1.279-3.173-2.668-3.734l.188-.464c1.558.63 2.549 2.007 2.97 4.1M9.907 17.15l-.26-.427c1.688-1.03 2.544-2.287 2.596-3.784l.5.017c-.059 1.68-1.014 3.082-2.836 4.194"/></g></g></g><defs><filter id="a" x="0" y="0" color-interpolation-filters="sRGB" filterUnits="userSpaceOnUse"><feFlood flood-opacity="0" result="BackgroundImageFix"/><feColorMatrix in="SourceAlpha" result="hardAlpha" values="0 0 0 0 0 0 0 0 0 0 0 0 0 0 0 0 0 0 127 0"/><feOffset dx="1" dy="1"/><feGaussianBlur stdDeviation=".5"/><feComposite in2="hardAlpha" operator="out"/><feColorMatrix values="0 0 0 0 0 0 0 0 0 0 0 0 0 0 0 0 0 0 0.4 0"/><feBlend in2="BackgroundImageFix" result="effect1_dropShadow_1_542"/><feBlend in="SourceGraphic" in2="effect1_dropShadow_1_542" result="shape"/></filter></defs></svg>