<svg xmlns="http://www.w3.org/2000/svg" fill="none" viewBox="0 0 26 26"><g filter="url(#a)"><mask id="b" x="0" y="0" maskUnits="userSpaceOnUse" style="mask-type:alpha"><circle cx="12" cy="12" r="12" fill="#d9d9d9"/></mask><g mask="url(#b)"><path fill="#f7fcff" fill-rule="evenodd" d="M-2 0v24h32V0z" clip-rule="evenodd"/><mask id="c" x="-2" y="0" maskUnits="userSpaceOnUse" style="mask-type:luminance"><path fill="#fff" fill-rule="evenodd" d="M-2 0v24h32V0z" clip-rule="evenodd"/></mask><g mask="url(#c)"><path fill="#e31d1c" fill-rule="evenodd" d="M-2 0v12h32V0z" clip-rule="evenodd"/><path fill="#f1f9ff" d="M1.851 6.374c0-4.215 3.644-4.526 5.018-4.178C6.857 2.2 4.042 3.3 4.042 6.374s2.815 4.21 2.827 4.215c-1.429.795-5.018 0-5.018-4.215m6.938 1.998h.914l-.674.753.203.955-.83-.489-.81.49.186-.956-.676-.714.914-.039.387-.891zm2.947-.054h.913l-.674.753.203.955-.829-.49-.81.49.185-.955-.676-.714.914-.04.387-.89zm-3.98-2.314h.913l-.674.753.204.955-.83-.489-.81.49.186-.956-.676-.715.914-.038.387-.892zm5.359-.044h.913l-.674.753.203.955-.83-.489-.81.49.186-.956-.676-.715.914-.038.387-.891zm-2.63-1.898h.912l-.674.753.203.955-.828-.49-.81.49.184-.955-.675-.715.914-.038.387-.892z"/></g></g></g><defs><filter id="a" x="0" y="0" color-interpolation-filters="sRGB" filterUnits="userSpaceOnUse"><feFlood flood-opacity="0" result="BackgroundImageFix"/><feColorMatrix in="SourceAlpha" result="hardAlpha" values="0 0 0 0 0 0 0 0 0 0 0 0 0 0 0 0 0 0 127 0"/><feOffset dx="1" dy="1"/><feGaussianBlur stdDeviation=".5"/><feComposite in2="hardAlpha" operator="out"/><feColorMatrix values="0 0 0 0 0 0 0 0 0 0 0 0 0 0 0 0 0 0 0.4 0"/><feBlend in2="BackgroundImageFix" result="effect1_dropShadow_1_540"/><feBlend in="SourceGraphic" in2="effect1_dropShadow_1_540" result="shape"/></filter></defs></svg>