<svg xmlns="http://www.w3.org/2000/svg" fill="none" viewBox="0 0 26 26"><g filter="url(#a)"><mask id="b" x="0" y="0" maskUnits="userSpaceOnUse" style="mask-type:alpha"><circle cx="12" cy="12" r="12" fill="#d9d9d9"/></mask><g mask="url(#b)"><path fill="#f7fcff" fill-rule="evenodd" d="M-4 0h32v24H-4z" clip-rule="evenodd"/><path fill="#e31d1c" fill-rule="evenodd" d="M-4 14.667v2h32v-2zm0 3.666v2h32v-2zm0-11v2h32v-2zM-4 22v2h32v-2zm0-11v2h32v-2zm0-11v2h32V0zm0 3.667v2h32v-2z" clip-rule="evenodd"/><path fill="#2e42a5" d="M-4 0h20v13H-4z"/><path fill="#f7fcff" d="M-1.947 9.968h.717l-.564.573.219.907-.703-.51-.726.51.245-.907-.644-.573h.841l.284-.739zm4 0h.717l-.564.573.219.907-.703-.51-.726.51.245-.907-.644-.573h.841l.284-.739zm4 0h.717l-.564.573.219.907-.703-.51-.726.51.245-.907-.644-.573h.841l.284-.739zm4 0h.717l-.564.573.219.907-.703-.51-.726.51.245-.907-.644-.573h.841l.284-.739zm4 0h.717l-.564.573.219.907-.703-.51-.726.51.245-.907-.644-.573h.841l.284-.739zm-14-2H.77l-.564.573.219.907-.703-.51-.726.51.245-.907-.644-.573h.841l.284-.739zm4 0h.717l-.564.573.219.907-.703-.51-.726.51.245-.907-.644-.573h.841l.284-.739zm4 0h.717l-.564.573.219.907-.703-.51-.726.51.245-.907-.644-.573h.841l.284-.739zm4 0h.717l-.564.573.219.907-.703-.51-.726.51.245-.907-.644-.573h.841l.284-.739zm-14-2h.717l-.564.573.219.907-.703-.51-.726.51.245-.907-.644-.573h.841l.284-.739zm4 0h.717l-.564.573.219.907-.703-.51-.726.51.245-.907-.644-.573h.841l.284-.739zm4 0h.717l-.564.573.219.907-.703-.51-.726.51.245-.907-.644-.573h.841l.284-.739zm4 0h.717l-.564.573.219.907-.703-.51-.726.51.245-.907-.644-.573h.841l.284-.739zm4 0h.717l-.564.573.219.907-.703-.51-.726.51.245-.907-.644-.573h.841l.284-.739zm-14-2H.77l-.564.573.219.907-.703-.51-.726.51.245-.907-.644-.573h.841l.284-.739zm4 0h.717l-.564.573.219.907-.703-.51-.726.51.245-.907-.644-.573h.841l.284-.739zm4 0h.717l-.564.573.219.907-.703-.51-.726.51.245-.907-.644-.573h.841l.284-.739zm4 0h.717l-.564.573.219.907-.703-.51-.726.51.245-.907-.644-.573h.841l.284-.739zm-14-2h.717l-.564.573.219.907-.703-.51-.726.51.245-.907-.644-.573h.841l.284-.739zm4 0h.717l-.564.573.219.907-.703-.51-.726.51.245-.907-.644-.573h.841l.284-.739zm4 0h.717l-.564.573.219.907-.703-.51-.726.51.245-.907-.644-.573h.841l.284-.739zm4 0h.717l-.564.573.219.907-.703-.51-.726.51.245-.907-.644-.573h.841l.284-.739zm4 0h.717l-.564.573.219.907-.703-.51-.726.51.245-.907-.644-.573h.841l.284-.739z"/></g></g><defs><filter id="a" x="0" y="0" color-interpolation-filters="sRGB" filterUnits="userSpaceOnUse"><feFlood flood-opacity="0" result="BackgroundImageFix"/><feColorMatrix in="SourceAlpha" result="hardAlpha" values="0 0 0 0 0 0 0 0 0 0 0 0 0 0 0 0 0 0 127 0"/><feOffset dx="1" dy="1"/><feGaussianBlur stdDeviation=".5"/><feComposite in2="hardAlpha" operator="out"/><feColorMatrix values="0 0 0 0 0 0 0 0 0 0 0 0 0 0 0 0 0 0 0.4 0"/><feBlend in2="BackgroundImageFix" result="effect1_dropShadow_1_529"/><feBlend in="SourceGraphic" in2="effect1_dropShadow_1_529" result="shape"/></filter></defs></svg>