<svg xmlns="http://www.w3.org/2000/svg" fill="none" viewBox="0 0 26 26"><g filter="url(#a)"><mask id="b" x="0" y="0" maskUnits="userSpaceOnUse" style="mask-type:alpha"><circle cx="12" cy="12" r="12" fill="#d9d9d9"/></mask><g mask="url(#b)"><path fill="#2e42a5" fill-rule="evenodd" d="M-3.5.5v24h32V.5z" clip-rule="evenodd"/><path fill="#f7fcff" d="m-5.004 14 3.96 1.737L15.09 2.889 17.18.307l-4.236-.58-6.58 5.536-5.297 3.73z"/><path fill="#f50100" d="m-4.462 15.217 2.018 1.008L16.429.067h-2.833z"/><path fill="#f7fcff" d="m17.004 14-3.96 1.737L-3.09 2.889-5.18.307l4.236-.58 6.58 5.536 5.297 3.73z"/><path fill="#f50100" d="m16.277 14.319-1.186.52-.937.411-7.34-6.286-2.382-.773L-5.38.316h2.833L7.26 8.004l2.605.927z"/><path fill="#f50100" fill-rule="evenodd" d="M6.985 1h-2v6H-3v2h7.985v6h2V9H15V7H6.985z" clip-rule="evenodd"/><path fill="#f7fcff" fill-rule="evenodd" d="M3.485 1h5v4.5H15v5H8.485L8.5 15h-5l-.015-4.5H-3v-5h6.485zm1.5 6H-3v2h7.985v6h2V9H15V7H6.985V1h-2z" clip-rule="evenodd"/><path fill="#f7fcff" d="m6 21.5-1.302 1.203.13-1.768-1.753-.267 1.463-1.002-.883-1.537 1.694.52L6 17l.65 1.649 1.695-.52-.883 1.537 1.463 1.002-1.752.267.129 1.768zM19 14l-.868.802.086-1.178-1.168-.179.975-.668-.589-1.024 1.13.346L19 11l.434 1.099 1.13-.346-.59 1.024.976.668-1.168.178.086 1.179zm2-8-.868.802.086-1.178-1.168-.179.975-.668-.589-1.024 1.13.346L21 3l.434 1.099 1.13-.346-.59 1.024.976.668-1.168.178.086 1.179zm5 4-.868.802.086-1.178-1.168-.179.975-.668-.589-1.024 1.13.346L26 7l.434 1.099 1.13-.346-.59 1.024.976.668-1.168.178.086 1.179zm-4 13-.868.802.086-1.178-1.168-.179.975-.668-.589-1.024 1.13.346L22 20l.434 1.099 1.13-.346-.59 1.024.976.668-1.168.178.086 1.179zm3.5-7.75-.882.463.169-.981-.714-.695.986-.144L25.5 13l.44.893.987.143-.714.696.169.982z"/></g></g><defs><filter id="a" x="0" y="0" color-interpolation-filters="sRGB" filterUnits="userSpaceOnUse"><feFlood flood-opacity="0" result="BackgroundImageFix"/><feColorMatrix in="SourceAlpha" result="hardAlpha" values="0 0 0 0 0 0 0 0 0 0 0 0 0 0 0 0 0 0 127 0"/><feOffset dx="1" dy="1"/><feGaussianBlur stdDeviation=".5"/><feComposite in2="hardAlpha" operator="out"/><feColorMatrix values="0 0 0 0 0 0 0 0 0 0 0 0 0 0 0 0 0 0 0.4 0"/><feBlend in2="BackgroundImageFix" result="effect1_dropShadow_1_528"/><feBlend in="SourceGraphic" in2="effect1_dropShadow_1_528" result="shape"/></filter></defs></svg>