<svg xmlns="http://www.w3.org/2000/svg" fill="none" viewBox="0 0 26 26"><g filter="url(#a)"><mask id="b" x="0" y="0" maskUnits="userSpaceOnUse" style="mask-type:alpha"><circle cx="12" cy="12" r="12" fill="#d9d9d9"/></mask><g mask="url(#b)"><path fill="#d9071e" fill-rule="evenodd" d="M18 0h10v24H18z" clip-rule="evenodd"/><path fill="#006923" fill-rule="evenodd" d="M-4 0H8v24H-4z" clip-rule="evenodd"/><path fill="#fff" fill-rule="evenodd" d="M6 0h12v24H6z" clip-rule="evenodd"/><path fill="#a8ac71" d="M10.016 7.947a6 6 0 0 0-.22.395c.18.053.305.307.44.433.365.335.32.71-.18 1.116-.097.079.126.286.04.543.238.013.408.05.566.143.442.26.4.738.064 1.106a2.25 2.25 0 0 1-.857.581c-.5.18-1.033.11-1.033-.528 0-.025-.017-.075.22-.08-.38-.006-.537-1.05-.543-1.17 0-.794-.336-.794-.336-.794v-.427h.58c.33 0 .238.396.342.626.025-.042.067 1.313.202 1.2.052-.041.436.442.495.23.045-.16-.215-.789-.214-1.056 0-.621.195-.974.214-1-.083-.03-.207-.359-.263-.36-.514 0-.584-.108-.478-.563.057-.243-.137-.51.104-.91zm-.044 3.078.011-.01.005-.007z"/><path fill="#fcca3d" fill-rule="evenodd" d="M10.384 7.913s-.687.533-.558 1.1c.128.569 1.482 0 1.318-.55s-.76-.55-.76-.55" clip-rule="evenodd"/><path fill="#8f4620" fill-rule="evenodd" d="M15.267 12.403s.925-2.741-.546-4.16c-1.47-1.42-3.17-1.325-3.17-1.325s-.489.364 0 .641c.49.277.285.543.285.543s-.82-.832-1.364-.346c-.543.487.508.413.397.779s-.583 1.99.106 2.811c.69.82-.652.643-.379.643s1.24.19 1.24 0c0-.192.336.742.624.742.287 0 .51-.328.51-.328s.403.328.648.328c.246 0 1.103-.215 1.103-.215l-1.62-1.364s.098-.602-.132-.732 1.842 1.154 2.005 1.569c.162.414.293.414.293.414" clip-rule="evenodd"/><path fill="#9fab2f" d="M7.066 11.727s.15-.479.311-.512c.14-.029.433.23.433.23.52 2.889 1.778 4.018 3.865 4.018 2.112 0 3.392-.858 4.139-3.523 0 0 .397-.406.537-.36.152.048.343.585.343.585-.856 3.058-2.475 4.419-5.02 4.419-2.567 0-4.01-1.54-4.608-4.857"/><path fill="#2fc2dc" fill-rule="evenodd" d="M9.334 13.656s3.005.638 4.19.638-1.04.968-1.909.968q-.57 0-1.374-.692c-.096-.082-.003-.267-.295-.27-.409-.003-.916-.099-.867-.157.046-.055.64-.072.583-.133-.095-.1-.328-.354-.328-.354" clip-rule="evenodd"/><rect x="10.667" y="14.1" fill="#f9aa51" rx=".167"/><path fill="#259485" d="M8.176 12.136s0-.375.254-.574c.29-.229.564 0 .564 0 1.066 1.518 2.659 2.018 4.887 1.496 0 0 .667.218.7.361.043.182-.472.613-.472.613-2.605.61-4.618-.022-5.933-1.896"/><path fill="#fcca3d" fill-rule="evenodd" d="M12.591 12.35s-1.213.64-.809.64c.405 0 1.988.319 1.68 0-.308-.32-.87-.64-.87-.64m-1.436-.762s-.23-.666-.71-.666-.344.547-.575.547.215.384.413.384c.2 0 .872-.265.872-.265" clip-rule="evenodd"/></g></g><defs><filter id="a" x="0" y="0" color-interpolation-filters="sRGB" filterUnits="userSpaceOnUse"><feFlood flood-opacity="0" result="BackgroundImageFix"/><feColorMatrix in="SourceAlpha" result="hardAlpha" values="0 0 0 0 0 0 0 0 0 0 0 0 0 0 0 0 0 0 127 0"/><feOffset dx="1" dy="1"/><feGaussianBlur stdDeviation=".5"/><feComposite in2="hardAlpha" operator="out"/><feColorMatrix values="0 0 0 0 0 0 0 0 0 0 0 0 0 0 0 0 0 0 0.4 0"/><feBlend in2="BackgroundImageFix" result="effect1_dropShadow_1_543"/><feBlend in="SourceGraphic" in2="effect1_dropShadow_1_543" result="shape"/></filter></defs></svg>