<svg xmlns="http://www.w3.org/2000/svg" fill="none" viewBox="0 0 26 26"><g filter="url(#a)"><mask id="b" x="0" y="0" maskUnits="userSpaceOnUse" style="mask-type:alpha"><circle cx="12" cy="12" r="12" fill="#d9d9d9"/></mask><g mask="url(#b)"><path fill="#2e42a5" fill-rule="evenodd" d="M-4 0v24h32V0z" clip-rule="evenodd"/><g clip-path="url(#c)"><path fill="#2e42a5" d="M-4 0h18v14H-4z"/><path fill="#f7fcff" d="m-6.004 13 3.96 1.737L14.09 1.889l2.09-2.582-4.236-.58-6.58 5.536-5.297 3.73z"/><path fill="#f50100" d="m-5.462 14.217 2.018 1.008L15.429-.933h-2.834z"/><path fill="#f7fcff" d="m16.004 13-3.96 1.737L-4.09 1.889-6.18-.693l4.236-.58 6.58 5.536 5.297 3.73z"/><path fill="#f50100" d="m15.87 13.873-2.019 1.009-8.036-6.918-2.383-.773L-6.38-.684h2.833L6.26 7.004l2.605.927z"/><path fill="#f50100" fill-rule="evenodd" d="M5.985 0h-2v6H-4v2h7.985v6h2V8H14V6H5.985z" clip-rule="evenodd"/><path fill="#f7fcff" fill-rule="evenodd" d="M2.485 0h5v4.5H14v5H7.485L7.5 14h-5l-.015-4.5H-4v-5h6.485zm1.5 6H-4v2h7.985v6h2V8H14V6H5.985V0h-2z" clip-rule="evenodd"/></g><path fill="#f50100" fill-rule="evenodd" d="m20.1 7.47-.26 1.515 1.36-.715 1.36.715-.26-1.514 1.1-1.073-1.52-.22L21.2 4.8l-.68 1.377-1.52.221zm-4 5.6-.26 1.515 1.36-.715 1.36.715-.26-1.514 1.1-1.073-1.52-.22-.68-1.378-.68 1.377-1.52.221zm3.327 6.393-.337 1.964 1.763-.927 1.763.927-.336-1.963 1.426-1.391-1.971-.287L20.853 16l-.882 1.787-1.971.286zm3.412-4.883.26-1.512L22 11.997l1.518-.221.68-1.376.679 1.376 1.518.22-1.099 1.072.26 1.512-1.358-.714z" clip-rule="evenodd"/><path fill="#f7fcff" d="m19.84 8.985-.197-.034-.068.4.358-.19zm.26-1.514.197.033.018-.103-.075-.074zm1.1.799.093-.177-.093-.05-.093.05zm1.36.715-.093.177.358.188-.068-.4zM22.3 7.47l-.14-.144-.075.074.018.103zm1.1-1.073.14.144.29-.283-.401-.059zm-1.52-.22-.18.088.047.094.104.015zM21.2 4.8l.18-.089-.18-.363-.18.363zm-.68 1.377.029.198.104-.015.047-.094zM19 6.398l-.029-.198-.4.059.29.283zm-3.16 8.187-.197-.034-.068.4.358-.19zm.26-1.514.197.033.018-.103-.075-.074zm1.1.799.093-.177-.093-.05-.093.05zm1.36.715-.093.177.358.188-.068-.4zm-.26-1.514-.14-.144-.075.074.018.103zm1.1-1.073.14.144.29-.283-.401-.059zm-1.52-.22-.18.088.047.094.104.015zM17.2 10.4l.18-.088-.18-.364-.18.364zm-.68 1.377.029.198.104-.015.047-.094zm-1.52.221-.029-.197-.4.058.29.283zm4.09 9.43-.197-.035-.069.4.359-.189zm.337-1.965.197.034.018-.103-.076-.074zm1.426 1.037.093-.177-.093-.049-.093.049zm1.763.927-.093.177.36.189-.07-.4zm-.336-1.963-.14-.144-.075.074.018.103zm1.426-1.391.14.143.29-.283-.4-.058zm-1.971-.287-.18.089.047.094.104.015zM20.853 16l.18-.088-.18-.364-.18.364zm-.882 1.787.03.197.103-.015.047-.094zM18 18.073l-.029-.198-.4.058.29.283zm5.099-5.005.197.034.018-.104-.076-.074zm-.26 1.512-.197-.034-.068.4.358-.189zM22 11.997l-.029-.198-.4.058.29.283zm1.518-.221.03.198.103-.015.047-.095zm.68-1.376.179-.088-.18-.364-.179.364zm.679 1.376-.18.088.047.095.104.015zm1.518.22.14.144.29-.283-.401-.058zm-1.099 1.072-.14-.144-.075.074.018.104zm.26 1.512-.093.177.358.189-.068-.4zm-1.358-.714.093-.177-.093-.049-.093.049zM19.84 8.985l.197.033.26-1.514-.197-.033-.197-.034-.26 1.514zm1.36-.715-.093-.177-1.36.715.093.177.093.177 1.36-.715zm1.36.715.093-.177-1.36-.715-.093.177-.093.177 1.36.715zM22.3 7.47l-.197.033.26 1.514.197-.033.197-.034-.26-1.514zm1.1-1.073-.14-.143-1.1 1.072.14.144.14.143 1.1-1.072zm-1.52-.22-.029.197 1.52.221.029-.198.029-.198-1.52-.22zM21.2 4.8l-.18.088.68 1.378.18-.089.18-.088-.68-1.378zm-.68 1.377.18.089.68-1.378-.18-.088-.18-.089-.68 1.378zM19 6.398l.029.198 1.52-.22-.029-.199-.029-.197-1.52.22zm1.1 1.073.14-.144-1.1-1.072-.14.143-.14.144 1.1 1.072zm-4.26 7.114.197.033.26-1.514-.197-.033-.197-.034-.26 1.514zm1.36-.715-.093-.177-1.36.715.093.177.093.177 1.36-.715zm1.36.715.093-.177-1.36-.715-.093.177-.093.177 1.36.715zm-.26-1.514-.197.033.26 1.515.197-.034.197-.034-.26-1.514zm1.1-1.073-.14-.143-1.1 1.072.14.144.14.143 1.1-1.072zm-1.52-.22-.029.197 1.52.221.029-.198.029-.197-1.52-.221zM17.2 10.4l-.18.088.68 1.378.18-.088.18-.089-.68-1.377zm-.68 1.377.18.089.68-1.377-.18-.089-.18-.088-.68 1.377zm-1.52.221.029.198 1.52-.22-.029-.199-.029-.197-1.52.22zm1.1 1.073.14-.144-1.1-1.072-.14.143-.14.144 1.1 1.072zm2.99 8.356.197.034.337-1.964-.197-.034-.197-.033-.337 1.963zm1.763-.927-.093-.177-1.763.927.093.177.093.177 1.763-.927zm1.763.927.094-.177-1.764-.927-.093.177-.093.177 1.763.927zm-.336-1.963-.197.033.336 1.964.197-.034.198-.034-.337-1.963zm1.426-1.391-.14-.143-1.426 1.39.14.143.14.144 1.426-1.39zm-1.971-.287-.029.198 1.972.287.028-.198.03-.198-1.972-.286zM20.853 16l-.18.088.883 1.787.179-.088.18-.089-.883-1.787zm-.882 1.787.18.088.881-1.787-.179-.088-.18-.088-.88 1.786zM18 18.073l.029.198L20 17.984l-.029-.198-.028-.197-1.972.286zm1.427 1.39.14-.143-1.427-1.39-.14.143-.14.143 1.427 1.39zm3.672-6.395-.197-.034-.26 1.512.197.034.198.034.259-1.513zM22 11.997l-.14.143 1.1 1.07.139-.142.14-.144-1.1-1.07zm1.518-.221-.028-.198-1.519.22.029.199.029.197 1.518-.22zm.68-1.376-.18-.088-.679 1.376.18.088.179.088.679-1.376zm.679 1.376.179-.088-.68-1.376-.178.088-.18.088.68 1.377zm1.518.22.029-.197-1.519-.221-.028.198-.03.198 1.52.22zm-1.099 1.072.14.143 1.099-1.071-.14-.143-.14-.144-1.098 1.071zm.26 1.512.197-.034-.26-1.512-.197.034-.197.034.26 1.512zm-1.358-.714-.093.177 1.358.714.093-.177.093-.177-1.358-.714zm-1.359.714.094.177 1.358-.714-.093-.177-.093-.177-1.359.714z"/></g></g><defs><clipPath id="c"><path fill="#fff" d="M-4 0h18v14H-4z"/></clipPath><filter id="a" x="0" y="0" color-interpolation-filters="sRGB" filterUnits="userSpaceOnUse"><feFlood flood-opacity="0" result="BackgroundImageFix"/><feColorMatrix in="SourceAlpha" result="hardAlpha" values="0 0 0 0 0 0 0 0 0 0 0 0 0 0 0 0 0 0 127 0"/><feOffset dx="1" dy="1"/><feGaussianBlur stdDeviation=".5"/><feComposite in2="hardAlpha" operator="out"/><feColorMatrix values="0 0 0 0 0 0 0 0 0 0 0 0 0 0 0 0 0 0 0.4 0"/><feBlend in2="BackgroundImageFix" result="effect1_dropShadow_1_536"/><feBlend in="SourceGraphic" in2="effect1_dropShadow_1_536" result="shape"/></filter></defs></svg>