<svg xmlns="http://www.w3.org/2000/svg" fill="none" viewBox="0 0 26 26"><g filter="url(#a)"><mask id="b" x="0" y="0" maskUnits="userSpaceOnUse" style="mask-type:alpha"><circle cx="12" cy="12" r="12" fill="#d9d9d9"/></mask><g fill-rule="evenodd" clip-rule="evenodd" mask="url(#b)"><path fill="#e31d1c" d="M-1 0h32v24H-1z"/><path fill="#feca00" d="m14.016 4.548-1.01.61.23-1.19-.841-.89 1.139-.049.482-1.11.482 1.11h1.137l-.84.94.253 1.19zM6.018 9.607l-2.881 1.551.657-3.026-2.4-2.265 3.25-.123 1.374-2.826 1.374 2.826h3.243L8.24 8.132l.72 3.026zm9.998-1.059-1.01.61.23-1.19-.841-.89 1.139-.049.482-1.11.482 1.11h1.137l-.84.94.253 1.19zm-1 4-1.01.61.23-1.19-.841-.89 1.139-.049.482-1.11.482 1.11h1.137l-.84.94.253 1.19zm-3 3-1.01.61.23-1.19-.841-.89 1.139-.049.482-1.11.482 1.11h1.137l-.84.94.253 1.19z"/></g></g><defs><filter id="a" x="0" y="0" color-interpolation-filters="sRGB" filterUnits="userSpaceOnUse"><feFlood flood-opacity="0" result="BackgroundImageFix"/><feColorMatrix in="SourceAlpha" result="hardAlpha" values="0 0 0 0 0 0 0 0 0 0 0 0 0 0 0 0 0 0 127 0"/><feOffset dx="1" dy="1"/><feGaussianBlur stdDeviation=".5"/><feComposite in2="hardAlpha" operator="out"/><feColorMatrix values="0 0 0 0 0 0 0 0 0 0 0 0 0 0 0 0 0 0 0.4 0"/><feBlend in2="BackgroundImageFix" result="effect1_dropShadow_1_534"/><feBlend in="SourceGraphic" in2="effect1_dropShadow_1_534" result="shape"/></filter></defs></svg>