<svg xmlns="http://www.w3.org/2000/svg" fill="none" viewBox="0 0 26 26"><g filter="url(#a)"><mask id="b" x="0" y="0" maskUnits="userSpaceOnUse" style="mask-type:alpha"><circle cx="12" cy="12" r="12" fill="#d9d9d9"/></mask><g mask="url(#b)"><path fill="#ffb400" fill-rule="evenodd" d="M-4 0v24h32V0z" clip-rule="evenodd"/><mask id="c" x="-4" y="0" maskUnits="userSpaceOnUse" style="mask-type:luminance"><path fill="#fff" fill-rule="evenodd" d="M-4 0v24h32V0z" clip-rule="evenodd"/></mask><g mask="url(#c)"><path fill="#c51918" fill-rule="evenodd" d="M-4 0v6h32V0zm0 18v6h32v-6z" clip-rule="evenodd"/><path fill="#f1f9ff" d="M1.008 10.271h1.12v5.824h-1.12z"/><path fill="#c88a02" d="M2.575 9.823H2.24v.448H.896v-.448H.56v-.56h2.015z"/><path fill="#c88a02" fill-rule="evenodd" d="M2.24 16.431h.336v.56H.56v-.56h.336v-.448H2.24z" clip-rule="evenodd"/><path fill="#ad1619" fill-rule="evenodd" d="M1.568 9.376c.244 0 .269-.092.412-.23.112-.106.372-.238.372-.386 0-.34-.35-.616-.784-.616-.433 0-.784.275-.784.616 0 .165.18.276.315.387.142.116.247.229.47.229" clip-rule="evenodd"/><path fill="#005bbf" fill-rule="evenodd" d="M.56 16.991h2.016v.896s-.252-.112-.504-.112-.504.112-.504.112-.252-.112-.504-.112-.504.112-.504.112z" clip-rule="evenodd"/><path fill="#f1f9ff" d="M11.983 10.271h1.12v5.824h-1.12z"/><path fill="#c88a02" d="M13.552 9.823h-.336v.448h-1.344v-.448h-.336v-.56h2.016z"/><path fill="#c88a02" fill-rule="evenodd" d="M13.216 16.431h.336v.56h-2.016v-.56h.336v-.448h1.344z" clip-rule="evenodd"/><path fill="#ad1619" fill-rule="evenodd" d="M12.544 9.376c.243 0 .268-.092.412-.23.112-.106.372-.238.372-.386 0-.34-.351-.616-.784-.616s-.784.275-.784.616c0 .165.179.276.314.387.143.116.248.229.47.229" clip-rule="evenodd"/><path fill="#005bbf" fill-rule="evenodd" d="M11.536 16.991h2.016v.896s-.252-.112-.504-.112-.504.112-.504.112-.252-.112-.504-.112-.504.112-.504.112z" clip-rule="evenodd"/><path fill="#ad1619" d="M.388 11.872c.75-.517 2.758-.563 3.64-.108l-.412.796c-.432-.224-1.415-.265-2.103-.15l.353.058.394.06c.275.043.462.097.601.192a.536.536 0 0 1 .123.799c-.085.108-.197.189-.366.287l-.191.105-.193.103c-.161.086-.267.15-.346.207-.124.09-.252.163-.396.232-.078.037-.299.134-.299.134l-.012.006a.63.63 0 0 1 .122.383c0 .236-.114.459-.316.704L.3 15.112l-.066-.02-.036-.286c-.067-.53.158-.822.624-1.034.012-.006.223-.098.283-.127.099-.047.18-.094.255-.149s.156-.106.252-.162c-.577-.093-.888-.16-1.128-.264-.572-.246-.646-.819-.096-1.198m9.593-.108c.882-.455 2.89-.409 3.64.108.55.379.476.952-.097 1.198-.239.103-.55.171-1.127.264q.142.082.251.162c.076.055.157.102.255.15.06.028.272.12.284.125.465.212.691.505.624 1.035l-.037.287-.065.02-.687.567c-.202-.245-.316-.468-.316-.704 0-.15.045-.278.122-.383l-.013-.006s-.22-.097-.298-.134a2.5 2.5 0 0 1-.396-.232 3 3 0 0 0-.347-.207l-.192-.103-.191-.105a1.2 1.2 0 0 1-.367-.287.536.536 0 0 1 .124-.8c.138-.094.326-.148.601-.19l.394-.061q.196-.03.353-.059c-.688-.114-1.67-.073-2.103.15z"/><path fill="#f1f9ff" d="m1.923 12.4.33.068v.492c-.351.281-1.245.755-1.245.755v-1.316zm10.391 0-.33.068v.492c.352.281 1.245.755 1.245.755v-1.316z"/><path fill="#ad1619" d="M5.262 6.42s.938-.405 1.869-.314l-.001.003q.93-.09 1.836.313.945 0 1.81.62v.164L9.646 8.34c-.225.626-.628.66-.942.764-.104.034-1.578.075-1.578.075l-.002-.004c-2.203.253-2.536-.815-2.542-.835l-1.13-1.135v-.164c.006-.004.867-.62 1.81-.62m1.845-.031q.009-.067.012-.138z"/><path fill="#c88a02" d="m10.8 7.398-1.028.966c-.15.276-.225.459-.225.534 0 .116-.3.184-.887.254-.459.055-1 .09-1.444.096v.003l-.057-.002-.055.002v-.003a14 14 0 0 1-1.445-.096c-.586-.07-.886-.138-.887-.254q-.001-.023-.011-.06a.9.9 0 0 1-.125-.303l-.09-.17-1.026-.967.077-.082 1.025.965a10.7 10.7 0 0 1 2.432-.333v-.002l.045.001h.045v.001c1.3.015 2.45.338 2.463.342 0 0-.013.109-.044.235q.049-.099.116-.222l.01-.014 1.034-.973zM7.099 8.66c-.292.019-1.908.127-2.154.241l-.011.003q.054.022.146.043c.144.033.349.066.592.095.474.057 1.039.093 1.487.096a14 14 0 0 0 1.488-.096c.243-.03.448-.062.592-.095q.111-.024.167-.049l.03-.015q.002-.026.011-.06c-.05.075-.114.116-.195.078-.245-.114-1.862-.222-2.153-.24"/><path fill="#005bbf" fill-rule="evenodd" d="M7.112 5.347a.336.336 0 1 0 0-.672.336.336 0 0 0 0 .672" clip-rule="evenodd"/><path fill="#c88a02" d="M7.22 4.224h.153v.233h-.152v.467h.152v.233h-.541v-.233h.155v-.467h-.155v-.233h.155v-.148h.234zm-.276 1.12h.448V6.8h-.448z"/><path fill="#c88a02" d="m3.708 7.296-.615-.023c.29-1.678 1.72-2.5 4.004-2.5 2.287 0 3.712.826 3.98 2.51l-.832.087c-.13-.82-1.503-1.56-3.136-1.56-1.636 0-3.258.66-3.401 1.486"/><path fill="#e1e5e8" fill-rule="evenodd" d="M3.472 9.264h7.28v6.54S10.21 18 7.112 18s-3.64-2.253-3.64-2.253z" clip-rule="evenodd" opacity=".3"/><mask id="d" x="3" y="9" maskUnits="userSpaceOnUse" style="mask-type:luminance"><path fill="#fff" fill-rule="evenodd" d="M3.472 9.264h7.28v6.54S10.21 18 7.112 18s-3.64-2.253-3.64-2.253z" clip-rule="evenodd"/></mask><g mask="url(#d)"><path fill="#ffc034" d="M3.472 13.296h3.696v4.368H3.472z"/><path fill="#ad1619" d="M3.472 9.151h3.696v4.256H3.472z"/><path fill="#ad1619" d="M7.056 13.184h3.696v4.256H7.056z"/><path fill="#f1f9ff" d="M7.056 9.264h3.92v4.144h-3.92z"/><path fill="#f1f9ff" fill-rule="evenodd" d="M9.482 17.442S7.11 17.63 7.11 16.1c0 0-.023 1.343-2.5 1.343v1.208h4.872z" clip-rule="evenodd"/><path fill="#005bbf" fill-rule="evenodd" stroke="#ad1619" stroke-width=".583" d="M7.111 14.191c.464 0 .84-.4.84-.896 0-.494-.376-.896-.84-.896s-.84.402-.84.896c0 .495.377.896.84.896Z" clip-rule="evenodd"/></g><path fill="#c88a02" fill-rule="evenodd" d="M5 12a1 1 0 1 0 0-2 1 1 0 0 0 0 2" clip-rule="evenodd"/><path fill="#c37c9c" fill-rule="evenodd" d="M9 12a1 1 0 1 0 0-2 1 1 0 0 0 0 2" clip-rule="evenodd"/><path fill="#ffc034" fill-rule="evenodd" d="M9 16a1 1 0 1 0 0-2 1 1 0 0 0 0 2" clip-rule="evenodd"/><path fill="#ad1619" d="M5 16a1 1 0 1 0 0-2 1 1 0 0 0 0 2"/></g></g></g><defs><filter id="a" x="0" y="0" color-interpolation-filters="sRGB" filterUnits="userSpaceOnUse"><feFlood flood-opacity="0" result="BackgroundImageFix"/><feColorMatrix in="SourceAlpha" result="hardAlpha" values="0 0 0 0 0 0 0 0 0 0 0 0 0 0 0 0 0 0 127 0"/><feOffset dx="1" dy="1"/><feGaussianBlur stdDeviation=".5"/><feComposite in2="hardAlpha" operator="out"/><feColorMatrix values="0 0 0 0 0 0 0 0 0 0 0 0 0 0 0 0 0 0 0.4 0"/><feBlend in2="BackgroundImageFix" result="effect1_dropShadow_1_546"/><feBlend in="SourceGraphic" in2="effect1_dropShadow_1_546" result="shape"/></filter></defs></svg>