<svg xmlns="http://www.w3.org/2000/svg" fill="none" viewBox="0 0 26 26"><g filter="url(#a)"><mask id="b" x="0" y="0" maskUnits="userSpaceOnUse" style="mask-type:alpha"><circle cx="12" cy="12" r="12" fill="#d9d9d9"/></mask><g mask="url(#b)"><path fill="#e31d1c" fill-rule="evenodd" d="M-4 0v24h32V0z" clip-rule="evenodd"/><mask id="c" x="-4" y="0" maskUnits="userSpaceOnUse" style="mask-type:luminance"><path fill="#fff" fill-rule="evenodd" d="M-4 0v24h32V0z" clip-rule="evenodd"/></mask><g mask="url(#c)"><path fill="#f7fcff" d="M11.75 4.086c1.853-.003 4.114 1.076 4.764 2.611 0 0-2.073-1.194-4.427-.631s-3.842 2.64-3.86 5.1c-.02 2.627 1.657 4.42 3.798 4.947 2.13.525 4.375-.713 4.399-.726-.276.815-1.604 2.73-4.403 2.734-3.491.006-7.462-2.52-7.429-6.955.032-4.278 3.709-7.074 7.158-7.08m6.66 5.756 2.219-.747-1.363 1.904 2.076 1.785-2.62-.19-1.586 1.903.041-2.538-2.407-.849 2.134-.783-.08-2.248z"/></g></g></g><defs><filter id="a" x="0" y="0" color-interpolation-filters="sRGB" filterUnits="userSpaceOnUse"><feFlood flood-opacity="0" result="BackgroundImageFix"/><feColorMatrix in="SourceAlpha" result="hardAlpha" values="0 0 0 0 0 0 0 0 0 0 0 0 0 0 0 0 0 0 127 0"/><feOffset dx="1" dy="1"/><feGaussianBlur stdDeviation=".5"/><feComposite in2="hardAlpha" operator="out"/><feColorMatrix values="0 0 0 0 0 0 0 0 0 0 0 0 0 0 0 0 0 0 0.4 0"/><feBlend in2="BackgroundImageFix" result="effect1_dropShadow_1_539"/><feBlend in="SourceGraphic" in2="effect1_dropShadow_1_539" result="shape"/></filter></defs></svg>