<svg xmlns="http://www.w3.org/2000/svg" fill="none" viewBox="0 0 26 26"><g filter="url(#a)"><mask id="b" x="0" y="0" maskUnits="userSpaceOnUse" style="mask-type:alpha"><circle cx="12" cy="12" r="12" fill="#d9d9d9"/></mask><g mask="url(#b)"><path fill="#f7fcff" fill-rule="evenodd" d="M-4 0h32v24H-4z" clip-rule="evenodd"/><path fill="#e31d1c" fill-rule="evenodd" d="M-4 0v8h32V0z" clip-rule="evenodd"/><path fill="#3d58db" fill-rule="evenodd" d="M-4 16v8h32v-8z" clip-rule="evenodd"/><mask id="c" x="-6" y="-7" fill="#000" maskUnits="userSpaceOnUse"><path fill="#fff" d="M-6-7h36v38H-6z"/><path fill-rule="evenodd" d="M11.429 10-4-2v28l15.429-12H28v-4z" clip-rule="evenodd"/></mask><path fill="#5eaa22" fill-rule="evenodd" d="M11.429 10-4-2v28l15.429-12H28v-4z" clip-rule="evenodd"/><path fill="#f7fcff" d="m-4-2 1.228-1.579L-6-6.089V-2zm15.429 12L10.2 11.579l.541.421h.687zM-4 26h-2v4.09l3.228-2.511zm15.429-12v-2h-.687l-.541.421zM28 14v2h2v-2zm0-4h2V8h-2zM-4-2-5.228-.421l15.429 12L11.429 10l1.227-1.579-15.428-12zm0 28h2V-2h-4v28zm15.429-12L10.2 12.421l-15.429 12L-4 26l1.228 1.579 15.428-12zM28 14v-2H11.429v4H28zm0-4h-2v4h4v-4zm-16.571 0v2H28V8H11.429z" mask="url(#c)"/><mask id="d" x="-6" y="2" fill="#000" maskUnits="userSpaceOnUse"><path fill="#fff" d="M-6 2H8v20H-6z"/><path fill-rule="evenodd" d="m-4 6 8 6-8 6z" clip-rule="evenodd"/></mask><path fill="#272727" fill-rule="evenodd" d="m-4 6 8 6-8 6z" clip-rule="evenodd"/><path fill-rule="evenodd" stroke="#feca00" stroke-width="4" d="m-4 6 8 6-8 6z" clip-rule="evenodd" mask="url(#d)"/></g></g><defs><filter id="a" x="0" y="0" color-interpolation-filters="sRGB" filterUnits="userSpaceOnUse"><feFlood flood-opacity="0" result="BackgroundImageFix"/><feColorMatrix in="SourceAlpha" result="hardAlpha" values="0 0 0 0 0 0 0 0 0 0 0 0 0 0 0 0 0 0 127 0"/><feOffset dx="1" dy="1"/><feGaussianBlur stdDeviation=".5"/><feComposite in2="hardAlpha" operator="out"/><feColorMatrix values="0 0 0 0 0 0 0 0 0 0 0 0 0 0 0 0 0 0 0.4 0"/><feBlend in2="BackgroundImageFix" result="effect1_dropShadow_1_537"/><feBlend in="SourceGraphic" in2="effect1_dropShadow_1_537" result="shape"/></filter></defs></svg>