<svg xmlns="http://www.w3.org/2000/svg" fill="none" viewBox="0 0 26 26"><g filter="url(#a)"><mask id="b" x="0" y="0" maskUnits="userSpaceOnUse" style="mask-type:alpha"><circle cx="12" cy="12" r="12" fill="#d9d9d9"/></mask><g mask="url(#b)"><path fill="#e31d1c" fill-rule="evenodd" d="M-4 0v24h32V0z" clip-rule="evenodd"/><mask id="c" x="-4" y="0" maskUnits="userSpaceOnUse" style="mask-type:luminance"><path fill="#fff" fill-rule="evenodd" d="M-4 0v24h32V0z" clip-rule="evenodd"/></mask><g mask="url(#c)"><mask id="d" x="-6" y="-2" fill="#000" maskUnits="userSpaceOnUse"><path fill="#fff" d="M-6-2h36v28H-6z"/><path fill-rule="evenodd" d="M6 0h4v10h18v4H10v10H6V14H-4v-4H6z" clip-rule="evenodd"/></mask><path fill="#002868" fill-rule="evenodd" d="M6 0h4v10h18v4H10v10H6V14H-4v-4H6z" clip-rule="evenodd"/><path fill-rule="evenodd" stroke="#f7fcff" stroke-width="4" d="M6 0h4v10h18v4H10v10H6V14H-4v-4H6z" clip-rule="evenodd" mask="url(#d)"/></g></g></g><defs><filter id="a" x="0" y="0" color-interpolation-filters="sRGB" filterUnits="userSpaceOnUse"><feFlood flood-opacity="0" result="BackgroundImageFix"/><feColorMatrix in="SourceAlpha" result="hardAlpha" values="0 0 0 0 0 0 0 0 0 0 0 0 0 0 0 0 0 0 127 0"/><feOffset dx="1" dy="1"/><feGaussianBlur stdDeviation=".5"/><feComposite in2="hardAlpha" operator="out"/><feColorMatrix values="0 0 0 0 0 0 0 0 0 0 0 0 0 0 0 0 0 0 0.4 0"/><feBlend in2="BackgroundImageFix" result="effect1_dropShadow_1_535"/><feBlend in="SourceGraphic" in2="effect1_dropShadow_1_535" result="shape"/></filter></defs></svg>