<svg xmlns="http://www.w3.org/2000/svg" viewBox="0 0 24 24"><path d="M3.619 14.145c.058.664.625 1.025 1.347 1.025.772 0 1.367-.42 1.367-1.211 0-.723-.468-1.309-1.582-1.309h-.634v-.8l1.63-1.934v-.068h-2.86V8.93h4.247v.761L5.318 11.84v.068c1.26.098 2.07.996 2.06 2.08.01 1.23-1.006 2.11-2.422 2.11-1.308 0-2.334-.752-2.402-1.953zm7.019 1.953c-1.553 0-2.442-1.221-2.442-3.36v-.547c0-2.138.889-3.359 2.442-3.359 1.552 0 2.431 1.22 2.431 3.36v.546c0 2.139-.879 3.36-2.431 3.36m0-.918c.937 0 1.406-.82 1.406-2.442v-.547c0-1.62-.469-2.441-1.406-2.441-.938 0-1.407.82-1.407 2.441v.547c0 1.621.47 2.442 1.407 2.442m3.415.82v-5.303h1.006v.87h.059c.224-.596.742-.938 1.445-.938s1.201.351 1.426.937h.058c.254-.576.82-.937 1.592-.937.957 0 1.64.605 1.64 1.816V16h-1.044v-3.457c0-.713-.45-1.016-.996-1.016-.674 0-1.055.46-1.055 1.094V16H17.15v-3.516c0-.576-.4-.957-.967-.957-.586 0-1.084.489-1.084 1.202V16z"/></svg>