<svg xmlns="http://www.w3.org/2000/svg" viewBox="0 0 24 24"><path d="M5.572 8.93v6.2h1.465V16H2.954v-.87h1.543v-5.126l-1.543 1.045V9.994L4.537 8.93zm5.124 7.168c-1.279 0-2.226-.82-2.275-1.944h1.025c.05.616.586 1.045 1.25 1.045.781 0 1.367-.605 1.358-1.465.01-.869-.596-1.484-1.406-1.494-.528 0-.919.166-1.153.625H8.5l.43-3.935h3.808v.918h-2.89l-.225 1.982h.068c.235-.273.674-.478 1.192-.478 1.27 0 2.187.996 2.187 2.353 0 1.397-.996 2.393-2.373 2.393M14.053 16v-5.303h1.006v.87h.059c.224-.596.742-.938 1.445-.938s1.201.351 1.426.937h.058c.254-.576.82-.937 1.592-.937.957 0 1.64.605 1.64 1.816V16h-1.044v-3.457c0-.713-.45-1.016-.996-1.016-.674 0-1.055.46-1.055 1.094V16H17.15v-3.516c0-.576-.4-.957-.967-.957-.586 0-1.084.489-1.084 1.202V16z"/></svg>