<svg xmlns="http://www.w3.org/2000/svg" viewBox="0 0 24 24"><path d="M8.365 16.098c-1.279 0-2.226-.82-2.275-1.944h1.025c.05.616.586 1.045 1.25 1.045.782 0 1.368-.605 1.358-1.465.01-.869-.596-1.484-1.406-1.494-.528 0-.918.166-1.153.625h-.996l.43-3.935h3.808v.918h-2.89L7.29 11.83h.069c.234-.273.673-.478 1.191-.478 1.27 0 2.188.996 2.188 2.353 0 1.397-.997 2.393-2.374 2.393M11.723 16v-5.303h1.005v.87h.059c.224-.596.742-.938 1.445-.938s1.201.351 1.426.937h.059c.253-.576.82-.937 1.591-.937.957 0 1.641.605 1.641 1.816V16h-1.045v-3.457c0-.713-.45-1.016-.996-1.016-.674 0-1.055.46-1.055 1.094V16h-1.035v-3.516c0-.576-.4-.957-.967-.957-.586 0-1.084.489-1.084 1.202V16z"/></svg>