<svg xmlns="http://www.w3.org/2000/svg" viewBox="0 0 24 24"><path d="M15.852 6.75h2.37c.982 0 1.778.784 1.778 1.75v8.75c0 .966-.796 1.75-1.778 1.75H5.778C4.796 19 4 18.216 4 17.25V8.5c0-.966.796-1.75 1.778-1.75h2.37L9.333 5h5.334zm-7.228.875H5.778a.88.88 0 0 0-.89.875v8.75c0 .483.399.875.89.875h12.444c.491 0 .89-.392.89-.875V8.5a.88.88 0 0 0-.89-.875h-2.846l-1.185-1.75H9.809zM12 9.375c1.964 0 3.556 1.567 3.556 3.5s-1.592 3.5-3.556 3.5-3.556-1.567-3.556-3.5 1.592-3.5 3.556-3.5m0 .875c-1.473 0-2.667 1.175-2.667 2.625S10.527 15.5 12 15.5s2.667-1.175 2.667-2.625S13.473 10.25 12 10.25"/></svg>