<svg xmlns="http://www.w3.org/2000/svg" viewBox="0 0 24 24"><g clip-path="url(#a)"><path d="m9.97 13.041 2.03-1.54 2.021 1.54-.77-2.494 2.03-1.61h-2.485L12 6.48l-.796 2.459H8.719l2.021 1.61zM19 9.812c0-3.867-3.133-7-7-7s-7 3.133-7 7c0 1.777.665 3.387 1.75 4.62v6.756l5.25-1.75 5.25 1.75v-6.755A6.97 6.97 0 0 0 19 9.813m-7-5.25a5.254 5.254 0 0 1 5.25 5.25 5.254 5.254 0 0 1-5.25 5.25 5.254 5.254 0 0 1-5.25-5.25A5.254 5.254 0 0 1 12 4.563"/></g><defs><clipPath id="a"><path d="M0 0h24v24H0z"/></clipPath></defs></svg>